<!DOCTYPE svg PUBLIC "-//W3C//DTD SVG 1.1//EN" "http://www.w3.org/Graphics/SVG/1.1/DTD/svg11.dtd">
<!-- Uploaded to: SVG Repo, www.svgrepo.com, Transformed by: SVG Repo Mixer Tools -->
<svg version="1.1" id="_x35_" xmlns="http://www.w3.org/2000/svg" xmlns:xlink="http://www.w3.org/1999/xlink" viewBox="0 0 512 512" xml:space="preserve" width="800px" height="800px" fill="#000000">
<g id="SVGRepo_bgCarrier" stroke-width="0"/>
<g id="SVGRepo_tracerCarrier" stroke-linecap="round" stroke-linejoin="round"/>
<g id="SVGRepo_iconCarrier"> <g> <linearGradient id="SVGID_1_" gradientUnits="userSpaceOnUse" x1="250.6101" y1="128.0113" x2="501.2197" y2="128.0113"> <stop offset="0.0918" style="stop-color:#B0ACAA"/> <stop offset="1" style="stop-color:#ACACAB"/> </linearGradient> <path style="fill:url(#SVGID_1_);" d="M501.22,41.433v214.59H250.61V0h209.178c5.088,0,10.015,0.889,14.537,2.666 c11.226,4.2,20.11,13.085,24.229,24.229C500.251,31.418,501.22,36.344,501.22,41.433z"/> <linearGradient id="SVGID_2_" gradientUnits="userSpaceOnUse" x1="0" y1="128.0113" x2="250.6101" y2="128.0113"> <stop offset="0.0918" style="stop-color:#B0ACAA"/> <stop offset="1" style="stop-color:#ACACAB"/> </linearGradient> <path style="fill:url(#SVGID_2_);" d="M250.61,0v256.023H0V41.433C0,18.576,18.576,0,41.432,0H250.61z"/> <linearGradient id="SVGID_3_" gradientUnits="userSpaceOnUse" x1="-0.0365" y1="384.0052" x2="501.2233" y2="384.0052"> <stop offset="0.0338" style="stop-color:#EE7945"/> <stop offset="1" style="stop-color:#EC693B"/> </linearGradient> <path style="fill:url(#SVGID_3_);" d="M501.223,256.01v214.57c0,22.903-18.55,41.42-41.42,41.42h-209.21V256.01H501.223z"/> <linearGradient id="SVGID_4_" gradientUnits="userSpaceOnUse" x1="0" y1="383.9925" x2="250.6101" y2="383.9925"> <stop offset="0.0918" style="stop-color:#B0ACAA"/> <stop offset="1" style="stop-color:#ACACAB"/> </linearGradient> <path style="fill:url(#SVGID_4_);" d="M250.61,256.023v255.94H41.432c-5.734,0-11.145-1.132-16.072-3.23 c-10.015-4.2-18.01-12.276-22.21-22.21C1.131,481.595,0,476.266,0,470.61V256.023H250.61z"/> <polygon style="fill:#FFFFFF;" points="136.154,117.862 136.154,86.02 114.461,86.02 114.461,117.862 81.889,117.862 81.889,137.94 114.461,137.94 114.461,170.045 136.154,170.045 136.154,137.94 168.729,137.94 168.729,117.862 "/> <rect x="343.027" y="117.17" style="fill:#FFFFFF;" width="65.765" height="21.722"/> <polygon style="fill:#FFFFFF;" points="164.069,359.53 150.69,346.624 125.307,371.116 99.928,346.624 86.549,359.53 111.929,384.021 86.549,408.506 99.928,421.418 125.307,396.927 150.69,421.418 164.069,408.506 138.686,384.021 "/> <linearGradient id="SVGID_5_" gradientUnits="userSpaceOnUse" x1="338.6428" y1="384.032" x2="413.1875" y2="384.032"> <stop offset="0.0338" style="stop-color:#FFFFFF"/> <stop offset="1" style="stop-color:#EC693B"/> </linearGradient> <path style="opacity:0.4;fill:url(#SVGID_5_);" d="M338.643,394.289v14.053h74.545v-14.053H338.643z M338.643,359.722v14.053 h74.545v-14.053H338.643z"/> <rect x="247.379" style="fill:#E9E8E8;" width="6.461" height="511.962"/> <rect y="252.791" style="fill:#E9E8E8;" width="501.22" height="6.462"/> <path style="fill:#FFFFFF;" d="M336.704,393.078v13.972h74.626v-13.972H336.704z M336.704,358.511v14.053h74.626v-14.053H336.704z"/> <polygon style="fill:#F2F2F2;" points="134.259,116.643 134.259,84.801 112.566,84.801 112.566,116.643 79.994,116.643 79.994,136.722 112.566,136.722 112.566,168.827 134.259,168.827 134.259,136.722 166.834,136.722 166.834,116.643 "/> <rect x="341.132" y="115.952" style="fill:#F2F2F2;" width="65.765" height="21.722"/> <polygon style="fill:#F2F2F2;" points="162.174,358.312 148.795,345.406 123.412,369.898 98.033,345.406 84.655,358.312 110.034,382.803 84.655,407.288 98.033,420.2 123.412,395.709 148.795,420.2 162.174,407.288 136.791,382.803 "/> </g> </g>
</svg>